<?xml version="1.0" encoding="UTF-8" standalone="no"?>
<svg
   id="Layer_1"
   data-name="Layer 1"
   viewBox="0 0 2120 720"
   version="1.1"
   sodipodi:docname="Fluent-White Logo Only.svg"
   width="2120"
   height="720"
   inkscape:version="1.3 (0e150ed6c4, 2023-07-21)"
   xmlns:inkscape="http://www.inkscape.org/namespaces/inkscape"
   xmlns:sodipodi="http://sodipodi.sourceforge.net/DTD/sodipodi-0.dtd"
   xmlns="http://www.w3.org/2000/svg"
   xmlns:svg="http://www.w3.org/2000/svg">
  <sodipodi:namedview
     id="namedview9"
     pagecolor="#ffffff"
     bordercolor="#000000"
     borderopacity="0.25"
     inkscape:showpageshadow="2"
     inkscape:pageopacity="0.0"
     inkscape:pagecheckerboard="0"
     inkscape:deskcolor="#d1d1d1"
     inkscape:zoom="0.82638889"
     inkscape:cx="1440"
     inkscape:cy="359.39496"
     inkscape:window-width="3200"
     inkscape:window-height="1711"
     inkscape:window-x="-9"
     inkscape:window-y="-9"
     inkscape:window-maximized="1"
     inkscape:current-layer="Layer_1" />
  <defs
     id="defs1">
    <style
       id="style1">&#10;      .cls-1 {&#10;        fill: #fff;&#10;      }&#10;    </style>
  </defs>
  <g
     id="g9"
     transform="translate(-720)">
    <path
       class="cls-1"
       d="m 1091.77,128.93 c 16.46,0 33.59,3.99 51.39,11.97 17.8,7.98 31.67,15.77 41.63,23.36 l 14.35,11.97 -33.88,57.56 c -24.88,-20.52 -47.08,-30.77 -66.6,-30.77 -7.67,0 -13.98,1.71 -18.95,5.13 -4.98,3.42 -8.61,8.36 -10.91,14.81 -2.3,6.47 -3.83,12.83 -4.6,19.09 -0.77,6.27 -1.14,13.77 -1.14,22.51 v 2.28 h 88.42 v 76.35 h -87.85 V 583.66 H 982.1 V 343.19 h -48.81 v -76.35 h 49.38 c 0.76,-20.52 2.58,-38.18 5.45,-52.99 2.87,-14.82 8.04,-29.06 15.5,-42.74 7.46,-13.67 18.56,-24.12 33.3,-31.34 14.74,-7.21 33.02,-10.83 54.84,-10.83 z"
       id="path4" />
    <path
       class="cls-1"
       d="m 1225.29,153.44 h 83.82 v 430.23 h -83.82 z"
       id="path5" />
    <path
       class="cls-1"
       d="m 1351.6,266.84 h 83.82 v 173.23 c 0,49.77 18.37,74.65 55.12,74.65 17.98,0 33.58,-3.89 46.79,-11.68 13.21,-7.78 22.68,-18.52 28.42,-32.2 v -204 h 83.83 v 316.83 h -83.83 v -42.74 c -12.25,15.58 -27.95,27.83 -47.08,36.76 -19.14,8.92 -38.09,13.39 -56.84,13.39 -29.09,0 -54.74,-10.54 -76.94,-31.62 -22.2,-21.08 -33.3,-49.09 -33.3,-84.05 V 266.85 Z"
       id="path6" />
    <path
       class="cls-1"
       d="m 1848.82,260 c 41.72,0 76.84,13.96 105.36,41.88 28.51,27.92 42.78,67.91 42.78,119.95 0,11.4 -0.38,20.14 -1.15,26.21 h -228.52 c 3.82,20.9 13.11,37.52 27.85,49.86 14.73,12.35 32.24,18.52 52.53,18.52 30.23,0 53.21,-12.72 68.9,-38.17 l 71.77,35.9 c -14.55,23.93 -34.08,42.74 -58.56,56.41 -24.51,13.67 -51.88,20.51 -82.11,20.51 -46.7,0 -85.75,-15.57 -117.13,-46.72 -31.39,-31.14 -47.08,-70.85 -47.08,-119.1 0,-48.25 15.88,-87.84 47.66,-118.81 31.77,-30.95 71,-46.44 117.7,-46.44 z m -1.15,74.07 c -16.46,0 -31.39,4.47 -44.79,13.39 -13.4,8.93 -23.35,21.18 -29.85,36.76 h 140.09 c 0,-11.77 -5.08,-23.08 -15.22,-33.91 -10.15,-10.82 -26.89,-16.24 -50.24,-16.24 z"
       id="path7" />
    <path
       class="cls-1"
       d="m 2218,260 c 29.09,0 54.84,10.64 77.23,31.91 22.4,21.29 33.59,49.39 33.59,84.34 v 207.42 h -83.83 V 411.01 c 0,-49.76 -18.37,-74.65 -55.12,-74.65 -18,0 -33.59,3.9 -46.79,11.68 -13.21,7.79 -22.68,18.52 -28.43,32.2 v 203.43 h -83.82 V 266.84 h 83.82 v 43.31 c 12.25,-15.57 27.85,-27.82 46.8,-36.76 18.94,-8.92 37.79,-13.39 56.55,-13.39 z"
       id="path8" />
    <path
       class="cls-1"
       d="m 2404.6,180.79 h 80.95 v 86.05 h 82.68 v 76.35 h -82.68 v 111.69 c 0,8.75 0.38,16.34 1.15,22.79 0.76,6.47 2.3,12.92 4.59,19.37 2.3,6.47 5.93,11.4 10.91,14.82 4.97,3.42 11.28,5.13 18.94,5.13 8.8,0 17.22,-1.43 25.27,-4.28 8.04,-2.85 13.78,-5.79 17.22,-8.83 l 5.74,-3.99 26.41,60.41 c -1.92,2.28 -4.88,5.12 -8.9,8.54 -4.02,3.43 -13.02,7.98 -26.99,13.68 -13.98,5.69 -29.19,8.54 -45.64,8.54 -19.53,0 -36.37,-3.23 -50.53,-9.69 -14.17,-6.45 -24.98,-14.53 -32.44,-24.22 -7.47,-9.69 -13.3,-22.41 -17.52,-38.17 -4.21,-15.76 -6.8,-30.39 -7.75,-43.88 -0.96,-13.48 -1.43,-30.1 -1.43,-49.86 v -82.06 h -52.25 v -76.35 h 52.25 v -86.05 z"
       id="path9" />
  </g>
</svg>
