<svg width="112" height="33" viewBox="0 0 112 33" fill="none" xmlns="http://www.w3.org/2000/svg">
<path d="M10.9337 0.5C12.0693 0.5 13.2445 0.776204 14.4594 1.32861C15.7006 1.88101 16.6646 2.42026 17.3513 2.94636L18.3416 3.77497L16.0044 7.76017C14.2877 6.3397 12.756 5.62947 11.4091 5.62947C10.8809 5.62947 10.4451 5.74784 10.1018 5.98459C9.75844 6.22133 9.50754 6.5633 9.34908 7.01048C9.19062 7.45767 9.08498 7.90485 9.03217 8.35204C8.97935 8.77291 8.95294 9.28586 8.95294 9.89088V10.0487H15.0536V15.336H8.99255V31.9871H3.36725V15.336H0V10.0487H3.40687C3.45969 8.62824 3.57853 7.40506 3.7634 6.37916C3.97468 5.35327 4.33121 4.36683 4.833 3.41985C5.3612 2.47287 6.12708 1.74949 7.13066 1.24969C8.16064 0.749897 9.42831 0.5 10.9337 0.5ZM17.4754 2.19667H23.2591V31.9871H17.4754V2.19667ZM26.1798 10.0487H31.9636V22.0438C31.9636 25.4897 33.2313 27.2127 35.7666 27.2127C37.0079 27.2127 38.0775 26.9496 38.9754 26.4235C39.8997 25.8711 40.56 25.1215 40.9561 24.1745V10.0487H46.7399V31.9871H40.9561V29.0277C40.111 30.1062 39.0282 30.9612 37.7077 31.5925C36.3872 32.1975 35.0799 32.5 33.7859 32.5C31.7787 32.5 30.0093 31.7766 28.4775 30.3298C26.9457 28.8568 26.1798 26.9102 26.1798 24.4901V24.3323V10.0487ZM60.4763 9.57522C63.355 9.57522 65.7715 10.5485 67.7258 12.4951C69.7065 14.4153 70.6969 17.1774 70.6969 20.7811C70.6969 21.5703 70.6705 22.1753 70.6177 22.5962H54.851C55.1151 24.043 55.7489 25.2004 56.7525 26.0684C57.7825 26.9102 58.9974 27.3311 60.3971 27.3311C62.4835 27.3311 64.068 26.4499 65.1508 24.6874L70.1027 27.1732C69.0991 28.8305 67.7522 30.1326 66.062 31.0795C64.3717 32.0265 62.4835 32.5 60.3971 32.5C57.1751 32.5 54.4813 31.4215 52.3157 29.2645C50.1501 27.1075 49.0673 24.3586 49.0673 21.0179C49.0673 17.6771 50.1633 14.9414 52.3553 12.8107C54.5473 10.6537 57.2543 9.57522 60.4763 9.57522ZM60.3971 14.7047C59.2614 14.7047 58.2315 15.0203 57.3071 15.6517C56.3828 16.2567 55.6961 17.0984 55.2472 18.1769H64.9132C64.9132 17.3615 64.5566 16.5855 63.8436 15.849C63.1569 15.0861 62.0081 14.7047 60.3971 14.7047ZM85.9434 9.57522C87.9505 9.57522 89.72 10.3118 91.2518 11.7848C92.81 13.2579 93.589 15.2045 93.589 17.6245V17.7035V31.9871H87.8053V20.0314C87.8053 16.5855 86.5376 14.8625 84.0023 14.8625C82.761 14.8625 81.6781 15.1387 80.7538 15.6911C79.8558 16.2172 79.2088 16.9538 78.8127 17.9007V31.9871H73.0289V10.0487H78.8127V13.0475C79.6578 11.969 80.7274 11.1272 82.0214 10.5222C83.342 9.89088 84.6493 9.57522 85.9434 9.57522ZM98.8083 4.09063H104.394V10.0487H110.098V15.336H104.394V20.8601C104.394 20.8601 104.394 20.9127 104.394 21.0179C104.394 21.0179 104.394 21.7018 104.394 23.0697C104.394 23.6747 104.42 24.2008 104.473 24.648C104.526 25.0952 104.632 25.5423 104.79 25.9895C104.949 26.4367 105.199 26.7787 105.543 27.0154C105.886 27.2522 106.322 27.3705 106.85 27.3705C107.458 27.3705 108.039 27.2785 108.593 27.0943C109.148 26.8839 109.544 26.6734 109.782 26.463L110.178 26.1868L112 30.3693C111.868 30.5271 111.657 30.7244 111.366 30.9612C111.102 31.1979 110.481 31.5136 109.504 31.9081C108.554 32.3027 107.51 32.5 106.375 32.5C105.028 32.5 103.866 32.2764 102.889 31.8292C101.911 31.382 101.159 30.8296 100.631 30.172C100.129 29.4881 99.7326 28.6069 99.4421 27.5284C99.1516 26.4235 98.9668 25.4108 98.8875 24.4901C98.8347 23.5432 98.8083 22.3857 98.8083 21.0179V15.336H95.2033V10.0487H98.8083V4.09063Z" fill="white"/>
</svg>
