<?xml version="1.0" encoding="UTF-8"?>
<svg id="Layer_1" data-name="Layer 1" xmlns="http://www.w3.org/2000/svg" viewBox="0 0 720 720">
  <defs>
    <style>
      .cls-1 {
        fill: #0b50d0;
      }
    </style>
  </defs>
  <path class="cls-1" d="M202.34,257.1c-2.46-25.09,12.14-55.83,31-71.91,10.17-8.67,34.24-21.63,47.47-21.63h337.65c-1.15,48.67-37.59,91.31-87.06,95.04-48.61,3.66-106.58-.11-156.28-.06-54.5.06-110.62,1.69-164.94.06-2.74-.08-5.45.13-7.85-1.5Z"/>
  <path class="cls-1" d="M304.57,314.67c49.69-.47,101.84-.73,152.06,1.31l14.97-1.31c4.11,4.76,3.41,8.71,2.93,15.17-2.76,36.73-45.37,81.25-82.84,81.25h-242.62c.94-33.1,16.48-63.62,44.75-81.19,32.37-20.12,73.86-14.88,110.75-15.23Z"/>
  <path class="cls-1" d="M275.77,461.46c-.19,40.12-27.01,78.61-65.47,90.71-3.46,1.09-14.55,4.27-17.33,4.27h-91.43c-.55-40.32,27.73-79.55,66.52-91.1,2.41-.72,14.9-3.88,16.27-3.88h91.43Z"/>
</svg>