<svg width="183" height="38" viewBox="0 0 183 38" fill="none" xmlns="http://www.w3.org/2000/svg">
<path d="M2.37515 35.625L2.38434 35.6343C2.4934 35.7434 2.62288 35.8299 2.76538 35.8889C2.90788 35.9479 3.0606 35.9783 3.21484 35.9783C3.36908 35.9783 3.52181 35.9479 3.66431 35.8889C3.80681 35.8299 3.93628 35.7434 4.04535 35.6343L25.9003 13.7793C26.0087 13.6708 26.0948 13.5421 26.1535 13.4004C26.2122 13.2587 26.2424 13.1068 26.2424 12.9534C26.2424 12.8 26.2122 12.6482 26.1535 12.5065C26.0948 12.3648 26.0087 12.236 25.9003 12.1275L25.8955 12.1229C25.7841 12.0114 25.6517 11.923 25.5061 11.8627C25.3604 11.8024 25.2043 11.7713 25.0467 11.7713C24.889 11.7713 24.7329 11.8024 24.5872 11.8627C24.4416 11.923 24.3093 12.0114 24.1978 12.1229L2.37515 33.9457C2.15245 34.1684 2.02734 34.4704 2.02734 34.7853C2.02734 35.1003 2.15245 35.4023 2.37515 35.625Z" fill="#FCFBF7"/>
<path d="M8.80469 30.875H21.3753L20.3915 28.5H11.1797L8.80469 30.875Z" fill="#FCFBF7"/>
<path d="M14.7422 24.9375H23.954L26.329 22.5625H17.1172L14.7422 24.9375Z" fill="#FCFBF7"/>
<path d="M7.125 29.1956V16.625L9.5 17.6084V26.8206L7.125 29.1956Z" fill="#FCFBF7"/>
<path d="M21.3754 30.875L33.2504 19L32.351 18.22L31.4516 17.44L20.3916 28.5" fill="#FCFBF7"/>
<path d="M19 4.75L7.125 16.625L9.5 17.6084L20.5586 6.5498L19 4.75Z" fill="#FCFBF7"/>
<path fill-rule="evenodd" clip-rule="evenodd" d="M28.2263 2.11526C26.5611 1.79929 24.95 1.98058 23.6016 2.37502C20.9047 3.16389 19 4.75002 19 4.75002L20.5586 6.54983C20.5586 6.54983 22.1033 5.28627 24.2695 4.65261C26.4358 4.01894 28.969 3.95201 31.4919 6.4988C34.0149 9.04559 33.9382 11.605 33.2964 13.7815C32.6546 15.9581 31.4513 17.44 31.4513 17.44L33.25 19C33.25 19 34.7817 17.1521 35.5786 14.4495C36.3755 11.7468 36.3205 7.99856 33.1804 4.82888C31.6104 3.24404 29.8916 2.43122 28.2263 2.11526Z" fill="#FCFBF7"/>
<g clip-path="url(#clip0_1031_3233)">
<path d="M67.7037 29.128C67.7037 31.944 66.7437 34.072 64.8237 35.512C62.9357 36.92 60.2797 37.624 56.8557 37.624C54.9357 37.624 53.0637 37.368 51.2397 36.856C49.4477 36.344 48.1357 35.832 47.3037 35.32L46.0557 34.552L48.9357 29.176C49.1917 29.336 49.5597 29.56 50.0397 29.848C50.5197 30.104 51.4477 30.456 52.8237 30.904C54.1997 31.32 55.5437 31.528 56.8557 31.528C58.4557 31.528 59.5277 31.32 60.0717 30.904C60.6477 30.488 60.9357 29.928 60.9357 29.224C60.9357 28.52 60.4397 27.928 59.4477 27.448C58.4877 26.936 57.3037 26.472 55.8957 26.056C54.5197 25.64 53.1277 25.16 51.7197 24.616C50.3437 24.072 49.1597 23.256 48.1677 22.168C47.2077 21.08 46.7277 19.752 46.7277 18.184C46.7277 15.496 47.7357 13.416 49.7517 11.944C51.7677 10.472 54.1837 9.73602 56.9997 9.73602C58.7277 9.73602 60.3917 10.008 61.9917 10.552C63.6237 11.064 64.8077 11.592 65.5437 12.136L66.6477 12.904L63.9117 18.088C63.6877 17.928 63.3837 17.736 62.9997 17.512C62.6157 17.256 61.8157 16.92 60.5997 16.504C59.3837 16.088 58.1837 15.88 56.9997 15.88C54.6957 15.88 53.5437 16.552 53.5437 17.896C53.5437 18.44 54.0237 18.936 54.9837 19.384C55.9757 19.8 57.1597 20.216 58.5357 20.632C59.9437 21.048 61.3357 21.56 62.7117 22.168C64.0877 22.744 65.2557 23.624 66.2157 24.808C67.2077 25.992 67.7037 27.432 67.7037 29.128ZM89.3093 28.12L95.3093 31.144C94.0933 33.16 92.4613 34.744 90.4133 35.896C88.3653 37.048 86.0773 37.624 83.5493 37.624C79.6453 37.624 76.3813 36.312 73.7573 33.688C71.1333 31.064 69.8213 27.72 69.8213 23.656C69.8213 19.592 71.1333 16.264 73.7573 13.672C76.3813 11.048 79.6453 9.73602 83.5493 9.73602C86.0453 9.73602 88.3173 10.312 90.3653 11.464C92.4133 12.584 94.0453 14.136 95.2613 16.12L89.3093 19.24C87.9653 17.064 86.0453 15.976 83.5493 15.976C81.5653 15.976 79.9013 16.696 78.5573 18.136C77.2453 19.576 76.5893 21.416 76.5893 23.656C76.5893 25.896 77.2453 27.752 78.5573 29.224C79.9013 30.664 81.5653 31.384 83.5493 31.384C86.0453 31.384 87.9653 30.296 89.3093 28.12ZM113.847 9.73602V16.696C110.871 16.696 108.679 17.496 107.271 19.096C105.895 20.696 105.207 22.568 105.207 24.712V37H98.1987V10.312H105.207V14.152C106.167 12.776 107.399 11.704 108.903 10.936C110.439 10.136 112.087 9.73602 113.847 9.73602ZM116.927 1.52802C117.631 0.85602 118.527 0.52002 119.615 0.52002C120.703 0.52002 121.599 0.85602 122.303 1.52802C123.007 2.20002 123.359 3.11202 123.359 4.26402C123.359 5.41602 123.007 6.32802 122.303 7.00002C121.599 7.67202 120.703 8.00802 119.615 8.00802C118.527 8.00802 117.631 7.67202 116.927 7.00002C116.223 6.32802 115.871 5.41602 115.871 4.26402C115.871 3.11202 116.223 2.20002 116.927 1.52802ZM116.111 10.312H123.119V37H116.111V10.312ZM126.98 0.760019H133.988V12.616C135.908 10.696 138.468 9.73602 141.668 9.73602C145.508 9.73602 148.612 11.032 150.98 13.624C153.38 16.184 154.58 19.528 154.58 23.656C154.58 27.784 153.38 31.144 150.98 33.736C148.612 36.328 145.508 37.624 141.668 37.624C138.5 37.624 135.94 36.648 133.988 34.696V37H126.98V0.760019ZM145.844 18.136C144.532 16.696 142.884 15.976 140.9 15.976C138.916 15.976 137.268 16.696 135.956 18.136C134.644 19.576 133.988 21.416 133.988 23.656C133.988 25.896 134.644 27.752 135.956 29.224C137.268 30.664 138.916 31.384 140.9 31.384C142.884 31.384 144.532 30.664 145.844 29.224C147.156 27.752 147.812 25.896 147.812 23.656C147.812 21.416 147.156 19.576 145.844 18.136ZM170.505 9.73602C173.993 9.73602 176.921 10.92 179.289 13.288C181.689 15.624 182.889 18.984 182.889 23.368C182.889 24.328 182.857 25.064 182.793 25.576H163.689C164.009 27.336 164.777 28.744 165.993 29.8C167.241 30.824 168.713 31.336 170.409 31.336C172.937 31.336 174.857 30.264 176.169 28.12L182.169 31.144C180.953 33.16 179.321 34.744 177.273 35.896C175.225 37.048 172.937 37.624 170.409 37.624C166.505 37.624 163.241 36.312 160.617 33.688C157.993 31.064 156.681 27.72 156.681 23.656C156.681 19.592 158.009 16.264 160.665 13.672C163.321 11.048 166.601 9.73602 170.505 9.73602ZM170.409 15.976C169.033 15.976 167.785 16.36 166.665 17.128C165.545 17.864 164.713 18.888 164.169 20.2H175.881C175.881 19.208 175.449 18.264 174.585 17.368C173.753 16.44 172.361 15.976 170.409 15.976Z" fill="#FCFBF7"/>
</g>
<defs>
<clipPath id="clip0_1031_3233">
<rect width="137" height="38" fill="white" transform="translate(46)"/>
</clipPath>
</defs>
</svg>
